<?xml version="1.0" encoding="UTF-8" standalone="no"?>
<!-- Created with Inkscape (http://www.inkscape.org/) -->

<svg
   xmlns:i="http://ns.adobe.com/AdobeIllustrator/10.0/"
   xmlns:dc="http://purl.org/dc/elements/1.1/"
   xmlns:cc="http://creativecommons.org/ns#"
   xmlns:rdf="http://www.w3.org/1999/02/22-rdf-syntax-ns#"
   xmlns:svg="http://www.w3.org/2000/svg"
   xmlns="http://www.w3.org/2000/svg"
   xmlns:xlink="http://www.w3.org/1999/xlink"
   xmlns:sodipodi="http://sodipodi.sourceforge.net/DTD/sodipodi-0.dtd"
   xmlns:inkscape="http://www.inkscape.org/namespaces/inkscape"
   width="1920"
   height="1200"
   id="svg2"
   version="1.1"
   inkscape:version="0.92.1 r15371"
   inkscape:export-filename="/Users/adrienaubourg/Dropbox/wheezy_artwork/exports/proposals/wallpaper_1.png"
   inkscape:export-xdpi="90"
   inkscape:export-ydpi="90"
   sodipodi:docname="rt_lockscreen_2017.svg">
  <defs
     id="defs4">
    <linearGradient
       id="linearGradient3755">
      <stop
         style="stop-color:#8f9db3;stop-opacity:1;"
         offset="0"
         id="stop3757" />
      <stop
         style="stop-color:#161b2b;stop-opacity:1;"
         offset="1"
         id="stop3759" />
    </linearGradient>
    <radialGradient
       inkscape:collect="always"
       xlink:href="#linearGradient3755"
       id="radialGradient3765"
       cx="943.93427"
       cy="580.80634"
       fx="943.93427"
       fy="580.80634"
       r="960"
       gradientTransform="matrix(1.2448906,0,0,0.8766271,-235.09492,-56.788391)"
       gradientUnits="userSpaceOnUse" />
    <filter
       style="color-interpolation-filters:sRGB"
       inkscape:label="Drop Shadow"
       id="filter570">
      <feFlood
         flood-opacity="0.498039"
         flood-color="rgb(255,255,255)"
         result="flood"
         id="feFlood560" />
      <feComposite
         in="flood"
         in2="SourceGraphic"
         operator="in"
         result="composite1"
         id="feComposite562" />
      <feGaussianBlur
         in="composite1"
         stdDeviation="0.5"
         result="blur"
         id="feGaussianBlur564" />
      <feOffset
         dx="2"
         dy="2"
         result="offset"
         id="feOffset566" />
      <feComposite
         in="SourceGraphic"
         in2="offset"
         operator="over"
         result="composite2"
         id="feComposite568" />
    </filter>
  </defs>
  <sodipodi:namedview
     id="base"
     pagecolor="#ffffff"
     bordercolor="#666666"
     borderopacity="1.0"
     inkscape:pageopacity="0.0"
     inkscape:pageshadow="2"
     inkscape:zoom="0.49497475"
     inkscape:cx="1037.1925"
     inkscape:cy="526.37131"
     inkscape:document-units="px"
     inkscape:current-layer="layer2"
     showgrid="false"
     inkscape:window-width="1920"
     inkscape:window-height="995"
     inkscape:window-x="0"
     inkscape:window-y="48"
     inkscape:window-maximized="1"
     showguides="true"
     inkscape:guide-bbox="true">
    <sodipodi:guide
       orientation="0,1"
       position="-191.42857,600"
       id="guide3022"
       inkscape:locked="false" />
    <sodipodi:guide
       orientation="1,0"
       position="940,772.85714"
       id="guide3024"
       inkscape:locked="false" />
    <sodipodi:guide
       position="1870,1266.7313"
       orientation="1,0"
       id="guide144"
       inkscape:locked="false"
       inkscape:label=""
       inkscape:color="rgb(0,0,255)" />
    <sodipodi:guide
       position="2092.8571,1150"
       orientation="0,1"
       id="guide146"
       inkscape:locked="false"
       inkscape:label=""
       inkscape:color="rgb(0,0,255)" />
    <sodipodi:guide
       position="50,1276.8328"
       orientation="1,0"
       id="guide87"
       inkscape:locked="false"
       inkscape:label=""
       inkscape:color="rgb(0,0,255)" />
  </sodipodi:namedview>
  <metadata
     id="metadata7">
    <rdf:RDF>
      <cc:Work
         rdf:about="">
        <dc:format>image/svg+xml</dc:format>
        <dc:type
           rdf:resource="http://purl.org/dc/dcmitype/StillImage" />
        <dc:title />
      </cc:Work>
    </rdf:RDF>
  </metadata>
  <g
     inkscape:label="Fond"
     inkscape:groupmode="layer"
     id="layer1"
     transform="translate(0,147.63782)">
    <rect
       style="fill:url(#radialGradient3765);fill-opacity:1;stroke:none"
       id="rect2985"
       width="1920"
       height="1200"
       x="0"
       y="-147.63782" />
  </g>
  <g
     inkscape:groupmode="layer"
     id="layer2"
     inkscape:label="Logo"
     transform="translate(0,120)">
    <g
       style="overflow:visible;opacity:0.25;fill:#c8c8c9;fill-opacity:1"
       id="g3946"
       transform="matrix(5.5039512,0,0,5.5039512,1544.7055,643.69022)">
      <g
         i:rgbTrio="#4F008000FFFF"
         i:dimmedPercent="50"
         i:layer="yes"
         id="Layer_1"
         style="fill:#c8c8c9;fill-opacity:1">
        <g
           id="g3916"
           transform="matrix(0.98323459,0,0,0.98323459,-0.0013766,1.8181967)"
           style="fill:#c8c8c9;fill-opacity:1">
          <path
             id="path3918"
             d="m 51.986,57.297 c -1.797,0.025 0.34,0.926 2.686,1.287 0.648,-0.506 1.236,-1.018 1.76,-1.516 -1.461,0.358 -2.948,0.366 -4.446,0.229"
             i:knockout="Off"
             inkscape:connector-curvature="0"
             style="fill:#c8c8c9;fill-opacity:1" />
          <path
             id="path3920"
             d="m 61.631,54.893 c 1.07,-1.477 1.85,-3.094 2.125,-4.766 -0.24,1.192 -0.887,2.221 -1.496,3.307 -3.359,2.115 -0.316,-1.256 -0.002,-2.537 -3.612,4.546 -0.496,2.726 -0.627,3.996"
             i:knockout="Off"
             inkscape:connector-curvature="0"
             style="fill:#c8c8c9;fill-opacity:1" />
          <path
             id="path3922"
             d="m 65.191,45.629 c 0.217,-3.236 -0.637,-2.213 -0.924,-0.978 0.335,0.174 0.6,2.281 0.924,0.978"
             i:knockout="Off"
             inkscape:connector-curvature="0"
             style="fill:#c8c8c9;fill-opacity:1" />
          <path
             id="path3924"
             d="m 45.172,1.399 c 0.959,0.172 2.072,0.304 1.916,0.533 1.049,-0.23 1.287,-0.442 -1.916,-0.533"
             i:knockout="Off"
             inkscape:connector-curvature="0"
             style="fill:#c8c8c9;fill-opacity:1" />
          <path
             id="path3926"
             d="M 47.088,1.932 46.41,2.072 47.041,2.016 47.088,1.932"
             i:knockout="Off"
             inkscape:connector-curvature="0"
             style="fill:#c8c8c9;fill-opacity:1" />
          <path
             id="path3928"
             d="m 76.992,46.856 c 0.107,2.906 -0.85,4.316 -1.713,6.812 l -1.553,0.776 c -1.271,2.468 0.123,1.567 -0.787,3.53 -1.984,1.764 -6.021,5.52 -7.313,5.863 -0.943,-0.021 0.639,-1.113 0.846,-1.541 -2.656,1.824 -2.131,2.738 -6.193,3.846 L 60.16,65.878 C 50.142,70.591 36.226,61.251 36.409,48.507 c -0.107,0.809 -0.304,0.607 -0.526,0.934 -0.517,-6.557 3.028,-13.143 9.007,-15.832 5.848,-2.895 12.704,-1.707 16.893,2.197 -2.301,-3.014 -6.881,-6.209 -12.309,-5.91 -5.317,0.084 -10.291,3.463 -11.951,7.131 -2.724,1.715 -3.04,6.611 -4.227,7.507 -1.597,11.737 3.004,16.808 10.787,22.773 1.225,0.826 0.345,0.951 0.511,1.58 -2.586,-1.211 -4.954,-3.039 -6.901,-5.277 1.033,1.512 2.148,2.982 3.589,4.137 -2.438,-0.826 -5.695,-5.908 -6.646,-6.115 4.203,7.525 17.052,13.197 23.78,10.383 -3.113,0.115 -7.068,0.064 -10.566,-1.229 -1.469,-0.756 -3.467,-2.322 -3.11,-2.615 9.182,3.43 18.667,2.598 26.612,-3.771 2.021,-1.574 4.229,-4.252 4.867,-4.289 -0.961,1.445 0.164,0.695 -0.574,1.971 2.014,-3.248 -0.875,-1.322 2.082,-5.609 l 1.092,1.504 c -0.406,-2.696 3.348,-5.97 2.967,-10.234 0.861,-1.304 0.961,1.403 0.047,4.403 1.268,-3.328 0.334,-3.863 0.66,-6.609 0.352,0.923 0.814,1.904 1.051,2.878 -0.826,-3.216 0.848,-5.416 1.262,-7.285 -0.408,-0.181 -1.275,1.422 -1.473,-2.377 0.029,-1.65 0.459,-0.865 0.625,-1.271 -0.324,-0.186 -1.174,-1.451 -1.691,-3.877 0.375,-0.57 1.002,1.478 1.512,1.562 -0.328,-1.929 -0.893,-3.4 -0.916,-4.88 -1.49,-3.114 -0.527,0.415 -1.736,-1.337 -1.586,-4.947 1.316,-1.148 1.512,-3.396 2.404,3.483 3.775,8.881 4.404,11.117 -0.48,-2.726 -1.256,-5.367 -2.203,-7.922 0.73,0.307 -1.176,-5.609 0.949,-1.691 C 83.519,18.706 76.074,10.902 69.225,7.24 70.063,8.007 71.121,8.97 70.741,9.121 67.335,7.093 67.934,6.935 67.446,6.078 64.671,4.949 64.489,6.169 62.651,6.08 57.421,3.306 56.413,3.601 51.6,1.863 l 0.219,1.023 c -3.465,-1.154 -4.037,0.438 -7.782,0.004 -0.228,-0.178 1.2,-0.644 2.375,-0.815 -3.35,0.442 -3.193,-0.66 -6.471,0.122 0.808,-0.567 1.662,-0.942 2.524,-1.424 -2.732,0.166 -6.522,1.59 -5.352,0.295 -4.456,1.988 -12.37,4.779 -16.811,8.943 l -0.14,-0.933 c -2.035,2.443 -8.874,7.296 -9.419,10.46 l -0.544,0.127 c -1.059,1.793 -1.744,3.825 -2.584,5.67 -1.385,2.36 -2.03,0.908 -1.833,1.278 -2.724,5.523 -4.077,10.164 -5.246,13.97 0.833,1.245 0.02,7.495 0.335,12.497 -1.368,24.704 17.338,48.69 37.785,54.228 2.997,1.072 7.454,1.031 11.245,1.141 -4.473,-1.279 -5.051,-0.678 -9.408,-2.197 -3.143,-1.48 -3.832,-3.17 -6.058,-5.102 l 0.881,1.557 c -4.366,-1.545 -2.539,-1.912 -6.091,-3.037 l 0.941,-1.229 C 28.751,98.334 26.418,96.056 25.78,94.795 l -1.548,0.061 c -1.86,-2.295 -2.851,-3.949 -2.779,-5.23 l -0.5,0.891 c -0.567,-0.973 -6.843,-8.607 -3.587,-6.83 -0.605,-0.553 -1.409,-0.9 -2.281,-2.484 l 0.663,-0.758 c -1.567,-2.016 -2.884,-4.6 -2.784,-5.461 0.836,1.129 1.416,1.34 1.99,1.533 -3.957,-9.818 -4.179,-0.541 -7.176,-9.994 L 8.412,66.472 C 7.926,65.74 7.631,64.945 7.24,64.165 l 0.276,-2.75 C 4.667,58.121 6.719,47.409 7.13,41.534 7.415,39.145 9.508,36.602 11.1,32.614 l -0.97,-0.167 c 1.854,-3.234 10.586,-12.988 14.63,-12.486 1.959,-2.461 -0.389,-0.009 -0.772,-0.629 4.303,-4.453 5.656,-3.146 8.56,-3.947 3.132,-1.859 -2.688,0.725 -1.203,-0.709 5.414,-1.383 3.837,-3.144 10.9,-3.846 0.745,0.424 -1.729,0.655 -2.35,1.205 4.511,-2.207 14.275,-1.705 20.617,1.225 7.359,3.439 15.627,13.605 15.953,23.17 l 0.371,0.1 c -0.188,3.802 0.582,8.199 -0.752,12.238 l 0.908,-1.912"
             i:knockout="Off"
             inkscape:connector-curvature="0"
             style="fill:#c8c8c9;fill-opacity:1" />
          <path
             id="path3930"
             d="m 32.372,59.764 -0.252,1.26 c 1.181,1.604 2.118,3.342 3.626,4.596 -1.085,-2.118 -1.891,-2.993 -3.374,-5.856"
             i:knockout="Off"
             inkscape:connector-curvature="0"
             style="fill:#c8c8c9;fill-opacity:1" />
          <path
             id="path3932"
             d="m 35.164,59.654 c -0.625,-0.691 -0.995,-1.523 -1.409,-2.352 0.396,1.457 1.207,2.709 1.962,3.982 l -0.553,-1.63"
             i:knockout="Off"
             inkscape:connector-curvature="0"
             style="fill:#c8c8c9;fill-opacity:1" />
          <path
             id="path3934"
             d="m 84.568,48.916 -0.264,0.662 c -0.484,3.438 -1.529,6.84 -3.131,9.994 1.77,-3.328 2.915,-6.968 3.395,-10.656"
             i:knockout="Off"
             inkscape:connector-curvature="0"
             style="fill:#c8c8c9;fill-opacity:1" />
          <path
             id="path3936"
             d="M 45.527,0.537 C 46.742,0.092 48.514,0.293 49.803,0 48.123,0.141 46.451,0.225 44.8,0.438 l 0.727,0.099"
             i:knockout="Off"
             inkscape:connector-curvature="0"
             style="fill:#c8c8c9;fill-opacity:1" />
          <path
             id="path3938"
             d="m 2.872,23.219 c 0.28,2.592 -1.95,3.598 0.494,1.889 1.31,-2.951 -0.512,-0.815 -0.494,-1.889"
             i:knockout="Off"
             inkscape:connector-curvature="0"
             style="fill:#c8c8c9;fill-opacity:1" />
          <path
             id="path3940"
             d="M 0,35.215 C 0.563,33.487 0.665,32.449 0.88,31.449 -0.676,33.438 0.164,33.862 0,35.215"
             i:knockout="Off"
             inkscape:connector-curvature="0"
             style="fill:#c8c8c9;fill-opacity:1" />
        </g>
      </g>
    </g>
    <g
       id="layer1-3"
       inkscape:label="Calque 1"
       transform="matrix(0.92269142,0,0,0.92269142,-52.847741,-240.68652)"
       style="filter:url(#filter570)">
      <g
         id="g2847"
         inkscape:label="logo IUT R&amp;T condensé"
         transform="matrix(2.3523324,0,0,-2.3523324,-276.8027,1255.6835)">
        <g
           id="g2849"
           transform="translate(204.8765,452.8945)">
          <path
             inkscape:connector-curvature="0"
             d="m 0,0 h -3.566 l 0.414,2.269 h 3.565 z m -2.214,-12.14 h -3.565 l 1.839,10.088 h 3.565 z"
             style="fill:#ee7f22;fill-opacity:1;fill-rule:nonzero;stroke:none"
             id="path2851" />
        </g>
        <g
           id="g2861"
           transform="translate(217.0044,440.7549)">
          <path
             inkscape:connector-curvature="0"
             d="m 0,0 h -3.565 l 0.534,1.901 -0.05,0.022 c -0.876,-1.426 -2.166,-2.03 -4.338,-2.03 -1.822,0 -3.019,0.497 -3.485,1.468 -0.212,0.454 -0.236,1.058 -0.078,1.923 l 1.24,6.804 h 3.565 L -7.264,4.127 C -7.426,3.089 -7.442,3.003 -7.324,2.766 -7.13,2.355 -6.576,2.16 -5.639,2.16 c 1.074,0 1.907,0.303 2.388,0.886 0.246,0.324 0.359,0.648 0.54,1.642 l 0.984,5.4 h 3.566 z"
             style="fill:#ee7f22;fill-opacity:1;fill-rule:nonzero;stroke:none"
             id="path2863" />
        </g>
        <g
           id="g2865"
           transform="translate(230.064,448.7266)">
          <path
             inkscape:connector-curvature="0"
             d="m 0,0 h -4.772 l -0.832,-4.558 c -0.201,-1.102 -0.037,-1.382 0.848,-1.382 1.045,0 1.377,0.344 1.613,1.64 0.012,0.066 0.036,0.196 0.036,0.347 h 2.922 l -0.083,-0.454 c -0.228,-1.253 -0.391,-1.706 -0.719,-2.182 -0.764,-1.101 -1.96,-1.49 -4.642,-1.49 -2.117,0 -3.127,0.345 -3.582,1.23 -0.221,0.411 -0.222,0.843 -0.049,1.793 L -8.338,0 H -9.92 l 0.386,2.116 h 1.582 l 0.398,2.182 h 3.566 L -4.387,2.116 h 4.773 z"
             style="fill:#ee7f22;fill-opacity:1;fill-rule:nonzero;stroke:none"
             id="path2867" />
        </g>
        <g
           id="g2869"
           transform="translate(221.9399,434.8218)">
          <path
             inkscape:connector-curvature="0"
             d="m 0,0 c 0,-0.875 -0.5,-1.312 -1.499,-1.312 -0.138,0 -0.337,0.008 -0.598,0.025 -0.26,0.016 -0.46,0.025 -0.598,0.025 -2.583,0 -3.874,-0.67 -3.874,-2.01 v -9.683 c 0,-0.642 -0.234,-1.046 -0.702,-1.212 -0.191,-0.067 -0.68,-0.1 -1.467,-0.1 -0.797,0 -1.196,0.443 -1.196,1.329 v 9.666 c 0,2.082 1.026,3.494 3.078,4.235 1.254,0.466 3.119,0.698 5.596,0.698 C -0.42,1.661 0,1.107 0,0"
             style="fill:#004a7e;fill-opacity:1;fill-rule:nonzero;stroke:none"
             id="path2871" />
        </g>
        <g
           id="g2873"
           transform="translate(238.7139,442.5952)">
          <path
             inkscape:connector-curvature="0"
             d="m 0,0 c 0,-0.232 -0.776,-1.157 -2.328,-2.774 -0.701,-0.731 -1.243,-1.293 -1.626,-1.685 -0.383,-0.394 -0.617,-0.618 -0.702,-0.673 -0.244,-0.166 -0.489,-0.249 -0.733,-0.249 -0.713,0 -1.069,0.309 -1.069,0.93 0,0.221 0.096,0.431 0.288,0.631 l 4.448,4.584 c 0.138,0.144 0.319,0.216 0.542,0.216 0.287,0 0.555,-0.094 0.805,-0.283 C -0.125,0.509 0,0.276 0,0 m 2.392,-12.756 v 1.96 c 0,1.196 -2.28,1.794 -6.84,1.794 -2.69,0 -4.534,-0.1 -5.533,-0.299 -1.414,-0.277 -2.121,-0.82 -2.121,-1.628 v -1.827 z m 3.285,-1.595 c 0,-0.963 -0.314,-1.444 -0.941,-1.444 H -11.99 v -0.117 c 0,-1.506 0.85,-2.475 2.551,-2.906 0.372,-0.089 0.911,-0.158 1.618,-0.208 0.707,-0.05 1.608,-0.075 2.703,-0.075 0.829,0 1.243,-0.543 1.243,-1.628 0,-0.875 -0.414,-1.312 -1.243,-1.312 -1.127,0 -2.049,0.009 -2.767,0.025 -0.717,0.017 -1.262,0.048 -1.634,0.092 -1.85,0.199 -3.21,0.653 -4.082,1.361 -1.244,1.008 -1.865,2.193 -1.865,3.555 v 5.863 c 0,1.838 0.956,3.2 2.87,4.086 1.307,0.642 3.04,0.963 5.198,0.963 h 6.282 c 1.764,0 3.226,-0.304 4.385,-0.913 1.605,-0.775 2.408,-1.944 2.408,-3.505 z"
             style="fill:#004a7e;fill-opacity:1;fill-rule:nonzero;stroke:none"
             id="path2875" />
        </g>
        <g
           id="g2877"
           transform="translate(265.4854,425.1055)">
          <path
             inkscape:connector-curvature="0"
             d="m 0,0 c 0,-3.034 -2.222,-4.551 -6.665,-4.551 h -11.384 c -0.83,0 -1.244,0.437 -1.244,1.312 0,1.085 0.414,1.628 1.244,1.628 h 11.4 c 2.105,0 3.157,0.537 3.157,1.611 v 0.598 c 0,0.964 -0.957,1.445 -2.87,1.445 h -5.469 c -5.028,0 -7.542,1.462 -7.542,4.385 v 0.864 c 0,1.937 1.265,3.177 3.795,3.72 0.51,0.122 1.257,0.213 2.24,0.274 0.984,0.061 2.219,0.091 3.707,0.091 0.84,0 1.26,-0.553 1.26,-1.661 0,-0.863 -0.42,-1.295 -1.26,-1.295 h -2.423 c -1.265,0 -2.025,-0.017 -2.28,-0.05 -1.117,-0.155 -1.675,-0.515 -1.675,-1.079 V 6.461 c 0,-0.952 1.398,-1.428 4.194,-1.428 h 5.581 C -2.078,5.033 0,3.599 0,0.731 Z"
             style="fill:#004a7e;fill-opacity:1;fill-rule:nonzero;stroke:none"
             id="path2879" />
        </g>
        <g
           id="g2881"
           transform="translate(284.6831,429.8394)">
          <path
             inkscape:connector-curvature="0"
             d="m 0,0 v 1.96 c 0,1.196 -2.28,1.793 -6.84,1.793 -2.69,0 -4.534,-0.099 -5.533,-0.298 -1.414,-0.277 -2.121,-0.82 -2.121,-1.628 V 0 Z m 3.285,-1.595 c 0,-0.963 -0.314,-1.445 -0.941,-1.445 h -16.726 v -0.116 c 0,-1.506 0.85,-2.475 2.551,-2.907 0.372,-0.088 0.912,-0.157 1.619,-0.207 0.706,-0.05 1.607,-0.075 2.702,-0.075 0.829,0 1.244,-0.543 1.244,-1.628 0,-0.875 -0.415,-1.312 -1.244,-1.312 -1.127,0 -2.049,0.009 -2.766,0.025 -0.718,0.017 -1.263,0.048 -1.635,0.092 -1.849,0.199 -3.21,0.653 -4.082,1.361 -1.243,1.008 -1.865,2.193 -1.865,3.555 v 5.863 c 0,1.838 0.957,3.2 2.87,4.086 1.307,0.642 3.04,0.963 5.198,0.963 h 6.282 c 1.765,0 3.226,-0.305 4.385,-0.913 C 2.482,4.972 3.285,3.803 3.285,2.242 Z"
             style="fill:#004a7e;fill-opacity:1;fill-rule:nonzero;stroke:none"
             id="path2883" />
        </g>
        <g
           id="g2885"
           transform="translate(308.7598,426.1685)">
          <path
             inkscape:connector-curvature="0"
             d="m 0,0 c 0,0.155 -0.002,0.349 -0.008,0.582 -0.006,0.232 -0.013,0.503 -0.023,0.814 -0.011,0.309 -0.02,0.581 -0.025,0.813 -0.005,0.233 -0.007,0.426 -0.007,0.582 h -11.943 c -0.702,0 -1.425,-0.133 -2.169,-0.399 -0.967,-0.344 -1.45,-0.792 -1.45,-1.346 v -2.009 c 0,-0.587 0.499,-1.036 1.498,-1.346 0.638,-0.243 1.377,-0.365 2.216,-0.365 h 8.356 c 1.254,0 2.116,0.127 2.582,0.382 C -0.324,-1.949 0,-1.185 0,0 m 3.301,-0.831 c 0,-3.189 -2.296,-4.783 -6.889,-4.783 h -8.227 c -1.765,0 -3.29,0.338 -4.576,1.013 -1.733,0.864 -2.599,2.065 -2.599,3.604 V 1.03 c 0,1.661 0.823,2.907 2.471,3.737 1.223,0.642 2.753,0.963 4.593,0.963 H -0.031 C -0.213,6.849 -1.732,7.408 -4.592,7.408 -4.709,7.408 -4.85,7.405 -5.014,7.399 -5.18,7.394 -5.367,7.386 -5.58,7.375 -5.591,7.363 -5.645,7.358 -5.74,7.358 h -0.143 -0.256 -0.398 c -0.829,0 -1.244,0.548 -1.244,1.644 0,0.875 0.415,1.312 1.244,1.312 2.689,0 4.746,-0.193 6.171,-0.581 2.444,-0.72 3.667,-2.159 3.667,-4.318 z"
             style="fill:#004a7e;fill-opacity:1;fill-rule:nonzero;stroke:none"
             id="path2887" />
        </g>
        <g
           id="g2889"
           transform="translate(335.7705,425.3047)">
          <path
             inkscape:connector-curvature="0"
             d="m 0,0 c 0,-3.2 -3.253,-4.8 -9.759,-4.8 -0.179,0 -0.414,0.003 -0.701,0.008 -0.287,0.006 -0.621,0.015 -1.004,0.025 -0.012,0.012 -0.054,0.017 -0.128,0.017 h -0.143 -0.255 -0.462 -0.719 c -5.463,0 -8.195,1.583 -8.195,4.75 v 9.866 c 0,0.875 0.414,1.312 1.244,1.312 0.829,0 1.312,-0.039 1.451,-0.116 0.446,-0.166 0.67,-0.565 0.67,-1.196 V 0 c 0,-1.207 1.609,-1.81 4.83,-1.81 h 5.024 c 3.156,0 4.735,0.586 4.735,1.76 v 9.916 c 0,0.631 0.228,1.03 0.685,1.196 0.138,0.077 0.628,0.116 1.468,0.116 C -0.42,11.178 0,10.741 0,9.866 Z"
             style="fill:#004a7e;fill-opacity:1;fill-rule:nonzero;stroke:none"
             id="path2891" />
        </g>
        <g
           id="g2893"
           transform="translate(358.9707,421.7173)">
          <path
             inkscape:connector-curvature="0"
             d="m 0,0 c 0,-0.598 -0.293,-0.963 -0.877,-1.096 -0.086,-0.044 -0.605,-0.067 -1.562,-0.067 -0.256,0 -0.5,0.089 -0.735,0.266 l -7.525,5.714 -7.59,-5.714 c -0.234,-0.177 -0.829,-0.266 -1.785,-0.266 -0.957,0 -1.436,0.388 -1.436,1.163 0,0.454 0.239,0.858 0.717,1.212 l 7.494,5.581 -7.414,5.598 c -0.457,0.342 -0.685,0.747 -0.685,1.212 0,0.609 0.302,0.98 0.909,1.113 0.137,0.033 0.669,0.05 1.594,0.05 0.266,0 0.51,-0.083 0.734,-0.249 l 7.477,-5.714 7.32,5.697 c 0.202,0.177 0.786,0.266 1.754,0.266 0.956,0 1.434,-0.382 1.434,-1.146 0,-0.466 -0.228,-0.87 -0.685,-1.213 L -8.1,6.843 -0.701,1.212 C -0.234,0.858 0,0.454 0,0"
             style="fill:#004a7e;fill-opacity:1;fill-rule:nonzero;stroke:none"
             id="path2895" />
        </g>
        <g
           id="g2897"
           transform="translate(260.2925,407.0713)">
          <path
             inkscape:connector-curvature="0"
             d="m 0,0 c 0,-0.864 -0.42,-1.296 -1.26,-1.296 h -5.325 v -11.559 c 0,-0.875 -0.415,-1.313 -1.244,-1.313 -0.818,0 -1.297,0.039 -1.435,0.116 -0.457,0.177 -0.686,0.575 -0.686,1.197 v 11.559 c -0.446,0 -0.81,0.009 -1.092,0.025 -0.282,0.017 -0.481,0.036 -0.598,0.058 -0.531,0.188 -0.797,0.649 -0.797,1.379 0,0.73 0.266,1.189 0.797,1.379 0.117,0.021 0.316,0.041 0.598,0.058 0.282,0.016 0.646,0.024 1.092,0.024 v 3.14 c 0,0.864 0.415,1.296 1.244,1.296 0.818,0 1.297,-0.04 1.435,-0.118 0.457,-0.166 0.686,-0.558 0.686,-1.178 V 1.627 H -1.26 C -0.42,1.627 0,1.084 0,0"
             style="fill:#004a7e;fill-opacity:1;fill-rule:nonzero;stroke:none"
             id="path2899" />
        </g>
        <g
           id="g2901"
           transform="translate(276.7153,414.9443)">
          <path
             inkscape:connector-curvature="0"
             d="M 0,0 C 0,-0.232 -0.776,-1.158 -2.328,-2.774 -3.029,-3.506 -3.571,-4.067 -3.954,-4.46 -4.337,-4.854 -4.571,-5.078 -4.656,-5.133 -4.9,-5.299 -5.145,-5.382 -5.389,-5.382 c -0.713,0 -1.069,0.31 -1.069,0.931 0,0.221 0.096,0.431 0.288,0.631 l 4.448,4.584 c 0.138,0.143 0.319,0.215 0.542,0.215 0.287,0 0.555,-0.094 0.805,-0.282 C -0.125,0.509 0,0.275 0,0 m 2.392,-12.756 v 1.959 c 0,1.196 -2.28,1.794 -6.84,1.794 -2.69,0 -4.534,-0.1 -5.533,-0.299 -1.414,-0.276 -2.121,-0.819 -2.121,-1.628 v -1.826 z m 3.285,-1.596 c 0,-0.962 -0.314,-1.444 -0.941,-1.444 H -11.99 v -0.116 c 0,-1.506 0.85,-2.475 2.551,-2.906 0.372,-0.09 0.911,-0.159 1.618,-0.208 0.707,-0.05 1.608,-0.076 2.703,-0.076 0.829,0 1.243,-0.543 1.243,-1.627 0,-0.875 -0.414,-1.312 -1.243,-1.312 -1.127,0 -2.049,0.008 -2.767,0.025 -0.717,0.016 -1.262,0.047 -1.634,0.091 -1.85,0.199 -3.21,0.654 -4.082,1.362 -1.244,1.008 -1.865,2.192 -1.865,3.555 v 5.862 c 0,1.838 0.956,3.201 2.87,4.086 1.307,0.642 3.04,0.964 5.198,0.964 h 6.282 c 1.764,0 3.226,-0.304 4.385,-0.914 1.605,-0.775 2.408,-1.943 2.408,-3.504 z"
             style="fill:#004a7e;fill-opacity:1;fill-rule:nonzero;stroke:none"
             id="path2903" />
        </g>
        <g
           id="g2905"
           transform="translate(288.0684,394.2158)">
          <path
             inkscape:connector-curvature="0"
             d="m 0,0 c 0,-0.875 -0.415,-1.313 -1.244,-1.313 -0.819,0 -1.297,0.04 -1.435,0.117 C -3.136,-1.02 -3.365,-0.621 -3.365,0 v 17.622 c 0,0.864 0.415,1.296 1.244,1.296 0.776,0 1.26,-0.033 1.451,-0.1 C -0.224,18.662 0,18.264 0,17.622 Z"
             style="fill:#004a7e;fill-opacity:1;fill-rule:nonzero;stroke:none"
             id="path2907" />
        </g>
        <g
           id="g2909"
           transform="translate(305.4004,414.9443)">
          <path
             inkscape:connector-curvature="0"
             d="M 0,0 C 0,-0.232 -0.776,-1.158 -2.328,-2.774 -3.029,-3.506 -3.572,-4.067 -3.955,-4.46 -4.338,-4.854 -4.571,-5.078 -4.656,-5.133 -4.9,-5.299 -5.146,-5.382 -5.39,-5.382 c -0.712,0 -1.068,0.31 -1.068,0.931 0,0.221 0.096,0.431 0.287,0.631 l 4.448,4.584 c 0.139,0.143 0.32,0.215 0.543,0.215 0.287,0 0.555,-0.094 0.805,-0.282 C -0.125,0.509 0,0.275 0,0 m 2.392,-12.756 v 1.959 c 0,1.196 -2.281,1.794 -6.841,1.794 -2.689,0 -4.534,-0.1 -5.533,-0.299 -1.414,-0.276 -2.121,-0.819 -2.121,-1.628 v -1.826 z m 3.284,-1.596 c 0,-0.962 -0.314,-1.444 -0.941,-1.444 h -16.726 v -0.116 c 0,-1.506 0.85,-2.475 2.552,-2.906 0.371,-0.09 0.911,-0.159 1.618,-0.208 0.707,-0.05 1.608,-0.076 2.702,-0.076 0.83,0 1.244,-0.543 1.244,-1.627 0,-0.875 -0.414,-1.312 -1.244,-1.312 -1.127,0 -2.048,0.008 -2.766,0.025 -0.718,0.016 -1.262,0.047 -1.635,0.091 -1.849,0.199 -3.21,0.654 -4.081,1.362 -1.244,1.008 -1.866,2.192 -1.866,3.555 v 5.862 c 0,1.838 0.957,3.201 2.87,4.086 1.308,0.642 3.04,0.964 5.198,0.964 h 6.283 c 1.764,0 3.225,-0.304 4.385,-0.914 1.604,-0.775 2.407,-1.943 2.407,-3.504 z"
             style="fill:#004a7e;fill-opacity:1;fill-rule:nonzero;stroke:none"
             id="path2911" />
        </g>
        <g
           id="g2913"
           transform="translate(334.627,394.2158)">
          <path
             inkscape:connector-curvature="0"
             d="m 0,0 c 0,-0.875 -0.521,-1.313 -1.563,-1.313 h -12.453 c -2.391,0 -4.113,0.239 -5.166,0.715 -1.806,0.752 -2.711,2.119 -2.711,4.102 v 6.278 c 0,3.222 2.393,4.833 7.176,4.833 h 13.33 c 0.871,0 1.307,-0.492 1.307,-1.477 0,-0.986 -0.436,-1.479 -1.307,-1.479 h -13.092 c -2.699,0 -4.048,-0.593 -4.048,-1.777 V 3.654 c 0,-1.351 1.535,-2.027 4.607,-2.027 H -1.26 C -0.42,1.627 0,1.084 0,0"
             style="fill:#004a7e;fill-opacity:1;fill-rule:nonzero;stroke:none"
             id="path2915" />
        </g>
        <g
           id="g2917"
           transform="translate(353.7773,397.8525)">
          <path
             inkscape:connector-curvature="0"
             d="m 0,0 v 6.129 c 0,1.263 -1.383,1.893 -4.146,1.893 h -5.469 c -1.021,0 -1.936,-0.132 -2.742,-0.398 C -13.506,7.236 -14.08,6.649 -14.08,5.863 V 0 c 0,-0.753 0.584,-1.307 1.754,-1.66 0.775,-0.233 1.685,-0.35 2.726,-0.35 h 5.469 c 0.883,0 1.717,0.133 2.504,0.399 C -0.543,-1.246 0,-0.709 0,0 m 3.412,0 c 0,-1.816 -0.861,-3.145 -2.584,-3.986 -1.223,-0.643 -2.849,-0.963 -4.879,-0.963 h -5.595 c -1.85,0 -3.525,0.326 -5.024,0.98 -1.85,0.864 -2.774,2.186 -2.774,3.969 v 5.863 c 0,1.783 0.919,3.133 2.758,4.053 1.35,0.709 3.024,1.063 5.023,1.063 h 5.612 c 4.975,0 7.463,-1.694 7.463,-5.083 z"
             style="fill:#004a7e;fill-opacity:1;fill-rule:nonzero;stroke:none"
             id="path2919" />
        </g>
        <g
           id="g2921"
           transform="translate(388.3457,394.2158)">
          <path
             inkscape:connector-curvature="0"
             d="m 0,0 c 0,-0.875 -0.415,-1.313 -1.244,-1.313 -0.829,0 -1.313,0.04 -1.451,0.117 C -3.152,-1.03 -3.381,-0.631 -3.381,0 v 9.815 c 0,1.263 -1.43,1.894 -4.289,1.894 h -0.447 -0.207 c -0.117,0 -0.181,-0.006 -0.192,-0.017 -1.371,-0.055 -2.279,-0.155 -2.726,-0.298 -0.999,-0.31 -1.498,-0.986 -1.498,-2.027 V 0 c 0,-0.631 -0.229,-1.03 -0.686,-1.196 -0.138,-0.077 -0.622,-0.117 -1.451,-0.117 -0.84,0 -1.26,0.438 -1.26,1.313 v 9.4 c 0,0.942 -0.324,1.579 -0.972,1.911 -0.447,0.232 -1.175,0.348 -2.185,0.348 h -0.415 -0.27 -0.144 c -0.085,0 -0.133,0.005 -0.144,0.017 -0.212,0.012 -0.398,0.019 -0.557,0.025 -0.16,0.005 -0.293,0.008 -0.399,0.008 -2.892,0 -4.338,-0.643 -4.338,-1.927 V 0 c 0,-0.631 -0.222,-1.03 -0.669,-1.196 -0.138,-0.077 -0.622,-0.117 -1.451,-0.117 -0.829,0 -1.243,0.438 -1.243,1.313 v 9.417 c 0,3.466 2.444,5.198 7.334,5.198 0.967,0 1.756,-0.008 2.367,-0.024 0.612,-0.017 1.067,-0.048 1.364,-0.091 1.265,-0.166 2.434,-0.582 3.507,-1.246 0.957,0.619 2.137,1.023 3.541,1.213 0.744,0.099 1.993,0.148 3.747,0.148 C -2.355,14.615 0,12.883 0,9.417 Z"
             style="fill:#004a7e;fill-opacity:1;fill-rule:nonzero;stroke:none"
             id="path2923" />
        </g>
        <g
           id="g2925"
           transform="translate(409.5352,397.4541)">
          <path
             inkscape:connector-curvature="0"
             d="m 0,0 c 0,-3.034 -2.221,-4.551 -6.664,-4.551 h -11.385 c -0.83,0 -1.244,0.438 -1.244,1.313 0,1.084 0.414,1.627 1.244,1.627 h 11.401 c 2.104,0 3.157,0.537 3.157,1.611 v 0.598 c 0,0.964 -0.957,1.445 -2.87,1.445 h -5.469 c -5.029,0 -7.543,1.462 -7.543,4.385 v 0.863 c 0,1.938 1.266,3.178 3.795,3.721 0.511,0.122 1.258,0.213 2.24,0.274 0.984,0.061 2.219,0.091 3.707,0.091 0.84,0 1.26,-0.553 1.26,-1.66 0,-0.863 -0.42,-1.296 -1.26,-1.296 h -2.423 c -1.264,0 -2.024,-0.017 -2.28,-0.05 -1.116,-0.155 -1.674,-0.515 -1.674,-1.08 v -0.83 c 0,-0.952 1.398,-1.428 4.194,-1.428 h 5.58 C -2.078,5.033 0,3.599 0,0.73 Z"
             style="fill:#004a7e;fill-opacity:1;fill-rule:nonzero;stroke:none"
             id="path2927" />
        </g>
        <g
           id="g2929"
           transform="translate(197.8276,404.9932)">
          <path
             id="path2931"
             transform="matrix(0.42510999,0,0,-0.42510999,-80.156007,128.8104)"
             d="m 161.21875,289.0625 c -15.0314,0.11762 -27.15726,6.5293 -27.09375,14.34375 0.0588,7.81445 12.27639,12.30512 27.3125,12.1875 15.0267,-0.11056 27.18381,-4.78165 27.125,-12.59375 -0.0588,-7.81445 -12.31235,-14.05041 -27.34375,-13.9375 z M 158.5625,292.5 h 3.625 c 1.66545,0 3.0567,0.31817 4.21875,0.90625 1.49373,0.75039 2.25,1.87186 2.25,3.375 0,0.36226 -0.0148,0.67874 -0.0312,0.9375 -0.0165,0.2564 -0.0101,0.46034 -0.0312,0.625 -0.1035,0.71276 -1.01029,1.49052 -2.6875,2.375 -0.61866,0.32227 -1.21971,0.62801 -1.8125,0.875 -0.59279,0.24935 -1.19619,0.45865 -1.8125,0.65625 l 7.375,4.15625 0.0312,-3.875 c 0,-0.59749 0.22476,-0.98151 0.71875,-1.125 0.19524,-0.0612 0.68542,-0.0937 1.46875,-0.0937 0.80215,0 1.21875,0.4166 1.21875,1.21875 v 3.8125 c 0.007,-0.0828 0.027,-0.16526 0.0312,-0.25 v 0.25 c 0,0.13173 0.009,0.20934 0,0.21875 l -0.0312,-0.21875 c -0.0823,0.78097 -0.22109,1.36959 -0.4375,1.78125 l 1.53125,0.90625 c 0.52457,0.31051 0.78125,0.69284 0.78125,1.15625 0,0.74334 -0.46767,1.125 -1.40625,1.125 h -0.71875 -0.28125 c -0.11526,0 -0.17809,0.0118 -0.1875,0 -0.22818,-0.0188 -0.8981,-0.39511 -2.0625,-1.09375 -1.39023,0.73863 -3.36271,1.125 -5.875,1.125 h -6.5625 c -1.94773,0 -3.60977,-0.34068 -5,-0.96875 -1.98772,-0.83508 -3,-2.00996 -3,-3.5625 v -1.28125 c 0,-1.21616 0.52042,-2.174 1.5625,-2.875 0.56456,-0.38108 1.6521,-0.82792 3.21875,-1.3125 -1.67957,-1.37141 -2.59643,-2.36957 -2.71875,-3 -0.0329,-0.15055 -0.0312,-0.3444 -0.0312,-0.59375 0,-0.38108 0.0101,-0.73082 0.0312,-1.0625 0.0212,-0.32933 0.0514,-0.62867 0.0937,-0.90625 0.0306,-0.22582 0.14985,-0.52752 0.40625,-0.90625 1.04208,-1.5643 3.0999,-2.375 6.125,-2.375 z m -0.0937,2.8125 c -2.10063,0 -3.15625,0.44818 -3.15625,1.375 v 1.03125 c 0,0.37167 0.21334,0.65926 0.625,0.90625 l 2.71875,1.625 4.21875,-1.1875 c 1.56665,-0.454 2.34375,-0.90218 2.34375,-1.375 V 296.75 c 0,-0.96916 -1.0237,-1.4375 -3.09375,-1.4375 z m -0.34375,8 c -3.21329,0.92682 -4.8125,1.66293 -4.8125,2.1875 v 1.21875 c 0,0.62572 0.65144,1.10817 1.96875,1.4375 0.8045,0.22818 1.73917,0.34375 2.78125,0.34375 h 6.40625 c 1.24674,0 2.09674,-0.0309 2.5625,-0.125 z"
             style="fill:#ee7f22;fill-opacity:1;fill-rule:nonzero;stroke:none"
             inkscape:connector-curvature="0" />
        </g>
        <g
           id="g2933"
           transform="translate(206.6191,428.4009)">
          <path
             inkscape:connector-curvature="0"
             d="m 0,0 c 0.036,-5.04 -9.047,-9.196 -20.292,-9.28 -11.247,-0.087 -20.394,3.929 -20.431,8.97 -0.04,5.041 9.046,9.195 20.291,9.281 C -9.187,9.056 -0.039,5.041 0,0"
             style="fill:#ee7f22;fill-opacity:1;fill-rule:nonzero;stroke:none"
             id="path2935" />
        </g>
        <g
           id="g2937"
           transform="translate(243.2197,398.2354)">
          <path
             inkscape:connector-curvature="0"
             d="m 0,0 c 0.038,-5.287 -9.043,-9.643 -20.29,-9.727 -11.246,-0.086 -20.394,4.129 -20.433,9.415 -0.042,5.287 9.042,9.641 20.287,9.728 C -9.191,9.5 -0.042,5.287 0,0"
             style="fill:#ee7f22;fill-opacity:1;fill-rule:nonzero;stroke:none"
             id="path2939" />
        </g>
        <g
           id="g2941"
           transform="translate(188.1777,419.3076)">
          <path
             inkscape:connector-curvature="0"
             d="m 0,0 c 0,0 7.073,0.646 15.148,-3.594 4.504,-2.365 7.602,-6.982 9.765,-10.431 0,0 5.008,1.666 8.287,1.572 C 15.562,3.088 8.046,2.22 8.848,2.654 Z"
             style="fill:#ee7f22;fill-opacity:1;fill-rule:nonzero;stroke:none"
             id="path2943" />
        </g>
        <g
           id="g2945"
           transform="translate(187.9126,407.2598)" />
      </g>
      <text
         id="text4207"
         y="217.97618"
         x="296.03561"
         style="font-style:normal;font-weight:normal;line-height:0%;font-family:sans-serif;letter-spacing:0px;word-spacing:0px;fill:#ee7f22;fill-opacity:1;stroke:none"
         xml:space="preserve"><tspan
           style="font-style:oblique;font-variant:normal;font-weight:bold;font-stretch:normal;font-size:42px;line-height:125%;font-family:'DejaVu Sans';-inkscape-font-specification:'DejaVu Sans Bold Oblique';fill:#ee7f22;fill-opacity:1"
           y="217.97618"
           x="296.03561"
           id="tspan4209"
           sodipodi:role="line">auxerre</tspan></text>
    </g>
  </g>
</svg>
